<svg width="125" height="39" viewBox="0 0 125 39" xmlns="http://www.w3.org/2000/svg"><title>airbnb-logo@2x</title><path d="M33.703 31.582a5.801 5.801 0 0 1-3.554 4.568c-.937.39-1.952.507-2.968.39-.976-.117-1.952-.429-2.967-1.015-1.406-.78-2.812-1.99-4.452-3.786 2.577-3.163 4.14-6.051 4.725-8.628a9.784 9.784 0 0 0 .196-3.318 6.34 6.34 0 0 0-1.055-2.655c-1.21-1.757-3.241-2.772-5.506-2.772s-4.295 1.054-5.506 2.772a6.328 6.328 0 0 0-1.054 2.655 8.107 8.107 0 0 0 .195 3.318c.586 2.577 2.187 5.504 4.725 8.667-1.601 1.795-3.046 3.006-4.452 3.786-1.015.586-1.991.898-2.968 1.015a6.25 6.25 0 0 1-2.967-.39 5.8 5.8 0 0 1-3.553-4.567 6.459 6.459 0 0 1 .351-3.046c.117-.39.312-.78.507-1.249.274-.625.586-1.288.898-1.952l.04-.078a426.94 426.94 0 0 1 8.59-17.528l.118-.235c.312-.585.625-1.21.937-1.796.312-.624.663-1.21 1.093-1.717.82-.937 1.914-1.444 3.124-1.444 1.21 0 2.304.507 3.124 1.444.43.507.781 1.093 1.093 1.717.313.586.625 1.211.938 1.796l.117.235a518.483 518.483 0 0 1 8.552 17.567v.04c.312.624.585 1.326.898 1.951.195.469.39.859.507 1.25.313 1.014.43 1.99.274 3.005zm-15.58-1.834c-2.11-2.655-3.477-5.153-3.945-7.262-.195-.898-.234-1.678-.117-2.381a3.785 3.785 0 0 1 .625-1.64c.742-1.054 1.991-1.717 3.436-1.717 1.445 0 2.733.624 3.436 1.717.313.469.547 1.016.625 1.64.117.703.078 1.522-.117 2.381-.469 2.07-1.835 4.568-3.944 7.262zm17.61-2.03c-.195-.469-.39-.977-.585-1.406-.313-.703-.625-1.366-.899-1.99l-.039-.04a407.397 407.397 0 0 0-8.63-17.645l-.117-.235c-.312-.585-.624-1.21-.937-1.835-.39-.702-.78-1.444-1.406-2.146C21.87.859 20.074 0 18.161 0c-1.952 0-3.71.859-4.998 2.342-.586.703-1.015 1.445-1.406 2.147a79.77 79.77 0 0 1-.937 1.835l-.117.235c-3.007 5.856-5.936 11.79-8.63 17.645l-.04.078c-.272.625-.585 1.288-.897 1.991-.196.43-.39.898-.586 1.406-.508 1.444-.664 2.81-.469 4.216a8.297 8.297 0 0 0 5.077 6.48A8.02 8.02 0 0 0 8.32 39c.312 0 .702-.04 1.015-.078 1.289-.156 2.616-.586 3.905-1.327 1.6-.899 3.124-2.187 4.842-4.06 1.718 1.873 3.28 3.161 4.842 4.06 1.289.741 2.616 1.17 3.905 1.327a8.89 8.89 0 0 0 1.015.078c1.094 0 2.187-.195 3.163-.625 2.734-1.093 4.647-3.591 5.077-6.48.312-1.366.156-2.733-.352-4.177zm38.933-13.742c1.132 0 1.718.195 1.718.195v3.475s-3.124-1.054-5.077 1.17v10.268H67.56V14.366h3.162c.313 0 .547.274.547.547v.624c.703-.82 2.226-1.561 3.398-1.561zm10.152 11.907c-1.445 0-2.577-.742-3.163-1.6V19.05c.586-.781 1.836-1.6 3.163-1.6 2.5 0 4.413 1.56 4.413 4.216 0 2.654-1.914 4.216-4.413 4.216zm.625-11.907c-2.577 0-3.788 1.561-3.788 1.561V7.3h-3.748v21.745h3.162a.559.559 0 0 0 .547-.547v-.663s1.21 1.6 3.788 1.6c4.256 0 7.575-3.279 7.575-7.73.04-4.45-3.28-7.729-7.536-7.729zm22.532 6.363v8.745h-3.75V20.77c0-2.42-.78-3.397-2.889-3.397-1.132 0-2.304.586-3.046 1.445v10.228h-3.748v-14.68h2.967c.313 0 .547.274.547.547v.624c1.093-1.132 2.538-1.561 3.983-1.561 1.64 0 3.007.468 4.1 1.405 1.328 1.094 1.836 2.499 1.836 4.958zm8.864 5.544c-1.445 0-2.578-.742-3.163-1.6V19.05c.585-.781 1.835-1.6 3.163-1.6 2.499 0 4.412 1.56 4.412 4.216 0 2.654-1.913 4.216-4.412 4.216zm.625-11.907c-2.578 0-3.788 1.561-3.788 1.561V7.3h-3.75v21.745h3.164a.558.558 0 0 0 .547-.547v-.663s1.21 1.6 3.788 1.6c4.256 0 7.575-3.279 7.575-7.73 0-4.45-3.32-7.729-7.536-7.729zm-55.997.39h3.748v14.68h-3.748v-14.68zm-6.053 9.955c-.586.859-1.757 1.6-3.163 1.6-2.5 0-4.413-1.56-4.413-4.215s1.914-4.217 4.413-4.217c1.367 0 2.616.781 3.163 1.601v5.231zm0-9.408v.624s-1.21-1.561-3.787-1.561c-4.257 0-7.576 3.24-7.576 7.73 0 4.45 3.28 7.73 7.576 7.73 2.616 0 3.787-1.601 3.787-1.601v.663c0 .313.234.547.547.547h3.163V14.366H55.96a.558.558 0 0 0-.547.547zM65.88 9.798a2.533 2.533 0 0 1-2.538 2.538 2.533 2.533 0 0 1-2.538-2.538 2.508 2.508 0 0 1 2.538-2.537c1.445.04 2.538 1.171 2.538 2.537z" fill="#86939E" fill-rule="evenodd"/></svg>