<svg width="92" height="28" viewBox="0 0 92 28" xmlns="http://www.w3.org/2000/svg"><title>flickr-logo@2x</title><path d="M3.716 13.276H0V8.72h3.821V7.56c0-5.606 2.56-7.56 7.607-7.56 1.368 0 2.419.217 3.225.362l-.386 4.486c-.525-.181-1.051-.29-1.997-.29-1.613 0-2.244 1.158-2.244 3.003v1.158h4.487v4.557h-4.487v14.29h-6.31v-14.29zM18.776.848h6.571V28h-6.571V.848zm11.265 0h6.571v4.681h-6.571V.848zm0 7.49h6.571v18.726h-6.571V8.338zm24.744 5.808c-1.17-.721-2.341-1.046-3.866-1.046-2.766 0-4.894 1.948-4.894 5.195 0 2.995 2.483 4.942 5.25 4.942 1.453 0 2.907-.324 3.97-.901l.143 4.834c-1.596.541-3.511.83-5.214.83-6.1 0-10.745-3.608-10.745-9.813 0-6.241 4.645-9.849 10.745-9.849 1.916 0 3.618.325 5.072 1.046l-.461 4.762zM59.143.848h6.212v16.22h.07l5.176-7.93h6.8l-6.248 8.653L77.918 28h-7.524l-4.97-9.34h-.07V28h-6.211V.848zm32.546 13.245c-.69-.221-1.38-.221-2.104-.221-2.897 0-4.519 2.25-4.519 6.013V28h-6.209V8.781h5.657v3.542h.07c1.069-2.435 2.621-3.985 5.312-3.985.723 0 1.482.11 2.104.222l-.31 5.533z" fill="#86939E" fill-rule="evenodd"/></svg>