<svg width="89" height="34" viewBox="0 0 89 34" xmlns="http://www.w3.org/2000/svg"><title>vine-logo@2x</title><path d="M79.622 18.409c-2.033.789-3.152 2.98-3.297 5.063 1.974-.045 4.11-.227 5.764-1.423.94-.67 1.605-2.066.892-3.124-.777-.999-2.282-.913-3.359-.516zM16.892 2.035c2.249-2.19 5.82-2.515 8.669-1.438 1.95.749 3.334 2.56 3.823 4.56.728 2.949.357 6.122-.799 8.913-1.729.386-4.004.028-4.92-1.641.491-1.996 1.004-4.208.133-6.177-.397-.925-1.547-1.41-2.476-.986-1.01.434-1.401 1.584-1.54 2.594-.29 2.478.272 5.194 2.017 7.06 1.456 1.58 3.665 2.327 5.789 2.23 2.881-.067 5.703-1.335 7.636-3.48a291.01 291.01 0 0 1 4.481 0c.006 3.735-.006 7.467.006 11.201.036 1.256.091 2.649.898 3.683.707.913 2.124.813 2.961.14 1.186-.916 1.787-2.354 2.288-3.72 1.198-3.647 1.605-7.494 1.826-11.307 1.532-.006 3.065-.006 4.596.003.055 1.274.089 2.551.137 3.829 1.11-1.705 2.7-3.168 4.675-3.78 1.978-.626 4.363-.51 6.001.88 1.478 1.258 2.048 3.255 2.142 5.13.094 2.427-.036 4.857.067 7.281.08.813.303 1.826 1.168 2.136 1.08.343 2.075-.483 2.603-1.35 1.611-2.573 1.711-5.737 3.077-8.416 1.15-2.44 3.121-4.618 5.73-5.495 2.367-.776 5.098-.755 7.328.431 1.86.98 3.091 3.01 3.076 5.112.121 2.063-.922 4.108-2.621 5.264-2.549 1.802-5.786 2.142-8.823 2.136.559.983 1.46 1.769 2.552 2.093 2.742.838 5.804.225 8.155-1.38-.006 1.62.015 3.24-.006 4.857-1.966 1.36-4.515 1.62-6.854 1.584-3.45-.079-7.045-1.778-8.65-4.954-1.001 2.675-3.516 5.024-6.501 4.96-1.957.055-3.893-1.05-4.779-2.803-1.253-2.3-.843-4.991-.913-7.497-.049-1.484.18-3.064-.46-4.457-.578-1.14-2.128-1.09-3.129-.6-1.687.83-2.482 2.711-2.928 4.435-.84 3.459-.437 7.045-.543 10.564-1.805 0-3.61.003-5.413-.003-.015-1.55.007-3.104-.011-4.654-.771 1.526-1.788 2.98-3.232 3.935-1.914 1.329-4.581 1.447-6.62.343-1.699-.95-2.57-2.846-2.94-4.679-.594-3.134-.248-6.346-.336-9.514-2.491 1.699-5.562 2.26-8.526 2.345-1.926 3.932-4.587 7.497-7.736 10.531-.986.883-2.027 1.939-3.431 2.018-1.26.036-2.3-.801-3.22-1.56-2.878-2.518-4.917-5.843-6.52-9.28C2.216 17.501.866 11.411 0 5.323v-.231c1.927.006 3.853-.009 5.777.006.54 4.293 1.344 8.577 2.815 12.657a34.842 34.842 0 0 0 6.086 10.692c2.385-2.394 4.302-5.221 5.828-8.228-3.744-1.941-5.928-6.077-6.152-10.203-.225-2.837.427-5.943 2.539-7.982zm19.633 1.769c1.102-.197 2.324.045 3.159.825 1.483 1.353 1.468 3.971-.003 5.327-1.487 1.399-4.275 1.174-5.346-.63-1.238-1.964-.319-5.198 2.19-5.522z" fill="#86939E" fill-rule="evenodd"/></svg>