<?xml version="1.0" encoding="UTF-8" standalone="no"?>
<svg width="125px" height="39px" viewBox="0 0 125 39" version="1.1" xmlns="http://www.w3.org/2000/svg" xmlns:xlink="http://www.w3.org/1999/xlink">
    <!-- Generator: Sketch 41.2 (35397) - http://www.bohemiancoding.com/sketch -->
    <title>airbnb-logo@2x</title>
    <desc>Created with Sketch.</desc>
    <defs></defs>
    <g id="Landing-Hospitals" stroke="none" stroke-width="1" fill="none" fill-rule="evenodd">
        <g id="Mlocum---Hospital---Landing-Page" transform="translate(-267.000000, -5216.000000)" fill="#86939E">
            <g id="Groups" transform="translate(0.000000, -3.000000)">
                <g id="Testimonials-#7" transform="translate(0.000000, 4859.000000)">
                    <g id="#1" transform="translate(180.000000, 360.000000)">
                        <path d="M120.702713,31.5821833 C120.429243,33.6124427 119.062849,35.3693065 117.149042,36.1500293 C116.212113,36.5403906 115.19671,36.6573564 114.181308,36.5403906 C113.20538,36.4234249 112.228977,36.1110407 111.213574,35.5252609 C109.808181,34.7445382 108.402312,33.5344655 106.761973,31.7386131 C109.339241,28.5762582 110.901582,25.6877743 111.487043,23.1111992 C111.760512,21.900651 111.799511,20.8075441 111.682514,19.7928899 C111.526042,18.8167488 111.174575,17.9185848 110.628113,17.1378621 C109.417239,15.3814737 107.38691,14.366344 105.12211,14.366344 C102.857311,14.366344 100.826506,15.4204623 99.6161082,17.1378621 C99.0691701,17.9185848 98.7177029,18.8167488 98.5617066,19.7928899 C98.4057103,20.8075441 98.4447094,21.9396396 98.7571775,23.1111992 C99.3426391,25.6877743 100.943979,28.6152468 103.481772,31.7776017 C101.880908,33.5734541 100.43604,34.7835268 99.030171,35.5642495 C98.0152441,36.1500293 97.0388407,36.4624134 96.0624372,36.5793792 C95.0080357,36.696345 93.9931088,36.5403906 93.0947035,36.1890178 C91.1813713,35.4082951 89.8145016,33.6514313 89.5415082,31.6216473 C89.4240354,30.6455062 89.5025091,29.6693651 89.8929754,28.5762582 C90.0099725,28.1858968 90.2054435,27.7955355 90.4004388,27.3271969 C90.6739079,26.7024286 90.986376,26.0386716 91.2983685,25.3753901 L91.3378432,25.2969375 C94.0321079,19.4805057 96.9218435,13.5466327 99.9285763,7.76871403 L100.045573,7.53430703 C100.358042,6.94900273 100.67051,6.32423437 100.982978,5.7384546 C101.29497,5.11416171 101.646438,4.52838194 102.076378,4.02105481 C102.89631,3.08390227 103.989711,2.57657515 105.200108,2.57657515 C106.410506,2.57657515 107.503907,3.08390227 108.323838,4.02105481 C108.753779,4.52838194 109.105247,5.11416171 109.417239,5.7384546 C109.729707,6.32423437 110.042175,6.94900273 110.354643,7.53430703 L110.471641,7.76871403 C113.439374,13.5856213 116.32911,19.5194943 119.02385,25.3364015 L119.02385,25.3753901 C119.335843,25.999683 119.609312,26.7024286 119.92178,27.3271969 C120.116775,27.7955355 120.312246,28.1858968 120.429243,28.5762582 C120.741712,29.5913879 120.859184,30.567529 120.702713,31.5821833 L120.702713,31.5821833 Z M105.12211,29.7478177 C103.013307,27.0927899 101.646438,24.5946674 101.177973,22.4864308 C100.982978,21.5882668 100.943979,20.8075441 101.060976,20.1047986 C101.138974,19.4805057 101.373444,18.9337145 101.685912,18.465376 C102.427846,17.4112577 103.677243,16.7475007 105.12211,16.7475007 C106.566978,16.7475007 107.855374,17.3722691 108.558308,18.465376 C108.870777,18.9337145 109.105247,19.4805057 109.183245,20.1047986 C109.300242,20.8075441 109.261243,21.6272554 109.065772,22.4864308 C108.597308,24.5552034 107.230913,27.0538013 105.12211,29.7478177 L105.12211,29.7478177 Z M122.733042,27.7175583 C122.538047,27.2492197 122.343051,26.7414171 122.14758,26.3120672 C121.835112,25.6093217 121.522644,24.9460402 121.249175,24.3212718 L121.210176,24.2822832 C118.515911,18.4263874 115.626176,12.4925144 112.580444,6.63661855 L112.463447,6.40221155 C112.150978,5.81690725 111.83851,5.19213889 111.526042,4.56737053 C111.135576,3.86462499 110.74511,3.12289086 110.120173,2.42062079 C108.870777,0.858699893 107.074442,0 105.161109,0 C103.208778,0 101.451442,0.858699893 100.162571,2.34216815 C99.5771091,3.04491368 99.1476438,3.78664781 98.7571775,4.48939335 C98.4447094,5.11416171 98.1322413,5.7384546 97.8197732,6.32423437 L97.702776,6.55864137 C94.6960432,12.4145372 91.7673085,18.3484102 89.0725682,24.2038306 L89.0335691,24.2822832 C88.7605757,24.9065761 88.4481075,25.5703331 88.1356394,26.2730786 C87.9401685,26.7024286 87.7451732,27.1707671 87.5497022,27.6785697 C87.0422388,29.1230494 86.8862425,30.4890764 87.0812379,31.8945674 C87.5107032,34.8225154 89.4630344,37.2821247 92.1577747,38.3752316 C93.1727016,38.8045816 94.2271032,39 95.3205038,39 C95.6329719,39 96.0234382,38.9605359 96.3359063,38.9215474 C97.6247778,38.765593 98.9521729,38.3362431 100.241044,37.5945089 C101.841908,36.696345 103.364774,35.4082951 105.083111,33.5344655 C106.800973,35.4082951 108.363313,36.696345 109.925178,37.5945089 C111.213574,38.3362431 112.541445,38.765593 113.829841,38.9215474 C114.142309,38.9605359 114.532775,39 114.845243,39 C115.938644,39 117.032044,38.8045816 118.008448,38.3752316 C120.741712,37.2821247 122.655044,34.7835268 123.084509,31.8945674 C123.396977,30.5285404 123.240981,29.1620379 122.733042,27.7175583 L122.733042,27.7175583 Z M161.665523,13.9759826 C162.797923,13.9759826 163.38386,14.1709256 163.38386,14.1709256 L163.38386,17.6456647 C163.38386,17.6456647 160.259655,16.5915464 158.307323,18.8167488 L158.307323,29.0840608 L154.558657,29.0840608 L154.558657,14.366344 L157.721386,14.366344 C158.033854,14.366344 158.268324,14.6397396 158.268324,14.9126597 L158.268324,15.5374281 C158.971259,14.7177168 160.494125,13.9759826 161.665523,13.9759826 L161.665523,13.9759826 Z M171.818122,25.8827173 C170.373254,25.8827173 169.240854,25.1409831 168.655393,24.2822832 L168.655393,19.0511558 C169.240854,18.2699576 170.490727,17.4502463 171.818122,17.4502463 C174.317391,17.4502463 176.230723,19.0116917 176.230723,21.6667195 C176.230723,24.3212718 174.317391,25.8827173 171.818122,25.8827173 L171.818122,25.8827173 Z M172.443058,13.9759826 C169.86579,13.9759826 168.655393,15.5374281 168.655393,15.5374281 L168.655393,7.3003755 L164.906726,7.3003755 L164.906726,29.0450722 L168.069455,29.0450722 C168.381923,29.0450722 168.616393,28.7716766 168.616393,28.498281 L168.616393,27.834524 C168.616393,27.834524 169.826791,29.4354335 172.404059,29.4354335 C176.660188,29.4354335 179.979389,26.1561128 179.979389,21.7057081 C180.018864,17.2553033 176.699663,13.9759826 172.443058,13.9759826 L172.443058,13.9759826 Z M194.97453,20.3392056 L194.97453,29.0840608 L191.225864,29.0840608 L191.225864,20.7685555 C191.225864,18.3484102 190.444931,17.3722691 188.336128,17.3722691 C187.203728,17.3722691 186.03233,17.9580489 185.290396,18.8167488 L185.290396,29.0450722 L181.54173,29.0450722 L181.54173,14.366344 L184.509464,14.366344 C184.821932,14.366344 185.055926,14.6397396 185.055926,14.9126597 L185.055926,15.5374281 C186.149327,14.4053326 187.594195,13.9759826 189.039063,13.9759826 C190.678926,13.9759826 192.045795,14.4443212 193.139196,15.3814737 C194.467067,16.4745806 194.97453,17.8795962 194.97453,20.3392056 L194.97453,20.3392056 Z M203.838732,25.8827173 C202.393864,25.8827173 201.261465,25.1409831 200.675528,24.2822832 L200.675528,19.0511558 C201.261465,18.2699576 202.510862,17.4502463 203.838732,17.4502463 C206.338002,17.4502463 208.251334,19.0116917 208.251334,21.6667195 C208.251334,24.3212718 206.338002,25.8827173 203.838732,25.8827173 L203.838732,25.8827173 Z M204.463668,13.9759826 C201.886401,13.9759826 200.675528,15.5374281 200.675528,15.5374281 L200.675528,7.3003755 L196.926861,7.3003755 L196.926861,29.0450722 L200.090066,29.0450722 C200.402534,29.0450722 200.636528,28.7716766 200.636528,28.498281 L200.636528,27.834524 C200.636528,27.834524 201.847402,29.4354335 204.424669,29.4354335 C208.680799,29.4354335 212,26.1561128 212,21.7057081 C212,17.2553033 208.680799,13.9759826 204.463668,13.9759826 L204.463668,13.9759826 Z M148.466718,14.366344 L152.215384,14.366344 L152.215384,29.0450722 L148.466718,29.0450722 L148.466718,14.366344 Z M142.414253,24.3212718 C141.828316,25.1799717 140.656917,25.9217058 139.251048,25.9217058 C136.751779,25.9217058 134.838447,24.3602604 134.838447,21.7057081 C134.838447,19.0511558 136.751779,17.4892349 139.251048,17.4892349 C140.617918,17.4892349 141.867315,18.2699576 142.414253,19.0901443 L142.414253,24.3212718 L142.414253,24.3212718 Z M142.414253,14.9126597 L142.414253,15.5374281 C142.414253,15.5374281 141.20338,13.9759826 138.626588,13.9759826 C134.369983,13.9759826 131.050782,17.2163147 131.050782,21.7057081 C131.050782,26.1561128 134.330983,29.4354335 138.626588,29.4354335 C141.242854,29.4354335 142.414253,27.834524 142.414253,27.834524 L142.414253,28.498281 C142.414253,28.8106652 142.648248,29.0450722 142.960716,29.0450722 L146.12392,29.0450722 L146.12392,14.366344 L142.960716,14.366344 C142.648248,14.366344 142.414253,14.6397396 142.414253,14.9126597 L142.414253,14.9126597 Z M152.879319,9.798498 C152.879319,11.2039891 151.74692,12.3360846 150.341051,12.3360846 C148.935182,12.3360846 147.802783,11.2039891 147.802783,9.798498 C147.802783,8.3934824 148.896183,7.26138691 150.341051,7.26138691 C151.785919,7.3003755 152.879319,8.43247098 152.879319,9.798498 L152.879319,9.798498 Z" id="airbnb-logo"></path>
                    </g>
                </g>
            </g>
        </g>
    </g>
</svg>