<?xml version="1.0" encoding="UTF-8" standalone="no"?>
<svg width="92px" height="28px" viewBox="0 0 92 28" version="1.1" xmlns="http://www.w3.org/2000/svg" xmlns:xlink="http://www.w3.org/1999/xlink">
    <!-- Generator: Sketch 41.2 (35397) - http://www.bohemiancoding.com/sketch -->
    <title>flickr-logo@2x</title>
    <desc>Created with Sketch.</desc>
    <defs></defs>
    <g id="Landing-Hospitals" stroke="none" stroke-width="1" fill="none" fill-rule="evenodd">
        <g id="Mlocum---Hospital---Landing-Page" transform="translate(-674.000000, -5221.000000)" fill="#86939E">
            <g id="Groups" transform="translate(0.000000, -3.000000)">
                <g id="Testimonials-#7" transform="translate(0.000000, 4859.000000)">
                    <g id="#2" transform="translate(570.000000, 365.000000)">
                        <path d="M107.716275,13.2763198 L104,13.2763198 L104,8.71859326 L107.821399,8.71859326 L107.821399,7.56081365 C107.821399,1.9536738 110.380215,0 115.428368,0 C116.795531,0 117.846957,0.217095002 118.653396,0.361704193 L118.267455,4.84766978 C117.742015,4.66663646 117.216029,4.55808896 116.269546,4.55808896 C114.657032,4.55808896 114.026103,5.71568735 114.026103,7.56081365 L114.026103,8.71859326 L118.512806,8.71859326 L118.512806,13.2763198 L114.026103,13.2763198 L114.026103,27.5654476 L107.716275,27.5654476 L107.716275,13.2763198 Z M122.775568,0.848023575 L129.346991,0.848023575 L129.346991,28 L122.775568,28 L122.775568,0.848023575 Z M134.040865,0.848023575 L140.612289,0.848023575 L140.612289,5.52939882 L134.040865,5.52939882 L134.040865,0.848023575 Z M134.040865,8.33822397 L140.612289,8.33822397 L140.612289,27.063725 L134.040865,27.063725 L134.040865,8.33822397 Z M158.784628,14.146272 C157.614379,13.4250324 156.443947,13.1004656 154.919128,13.1004656 C152.152852,13.1004656 150.025061,15.0484089 150.025061,18.2951618 C150.025061,21.2898151 152.50779,23.2372163 155.274434,23.2372163 C156.727677,23.2372163 158.181839,22.9130108 159.245919,22.3356216 L159.387784,27.1696076 C157.791757,27.711215 155.876855,28 154.174474,28 C148.074462,28 143.428613,24.3919948 143.428613,18.1869126 C143.428613,11.9460485 148.074462,8.33822397 154.174474,8.33822397 C156.08956,8.33822397 157.791757,8.66315226 159.245919,9.38439187 L158.784628,14.146272 Z M163.142883,0.848023575 L169.354883,0.848023575 L169.354883,17.0672128 L169.424362,17.0672128 L174.601327,9.13887921 L181.400503,9.13887921 L175.153226,17.7911688 L181.918378,28 L174.393783,28 L169.424362,18.6602061 L169.354883,18.6602061 L169.354883,28 L163.142883,28 L163.142883,0.848023575 Z M195.689299,14.0928045 C194.999709,13.8716095 194.309403,13.8716095 193.585091,13.8716095 C190.687665,13.8716095 189.066331,16.1218111 189.066331,19.8847128 L189.066331,28 L182.857153,28 L182.857153,8.7811683 L188.514373,8.7811683 L188.514373,12.3226903 L188.583636,12.3226903 C189.652653,9.88769758 191.205082,8.33822397 193.895791,8.33822397 C194.619387,8.33822397 195.37842,8.44891385 196,8.55978853 L195.689299,14.0928045 Z" id="flickr-logo"></path>
                    </g>
                </g>
            </g>
        </g>
    </g>
</svg>