<?xml version="1.0" encoding="UTF-8" standalone="no"?>
<svg width="89px" height="34px" viewBox="0 0 89 34" version="1.1" xmlns="http://www.w3.org/2000/svg" xmlns:xlink="http://www.w3.org/1999/xlink">
    <!-- Generator: Sketch 41.2 (35397) - http://www.bohemiancoding.com/sketch -->
    <title>vine-logo@2x</title>
    <desc>Created with Sketch.</desc>
    <defs></defs>
    <g id="Landing-Hospitals" stroke="none" stroke-width="1" fill="none" fill-rule="evenodd">
        <g id="Mlocum---Hospital---Landing-Page" transform="translate(-1064.000000, -5221.000000)" fill="#86939E">
            <g id="Groups" transform="translate(0.000000, -3.000000)">
                <g id="Testimonials-#7" transform="translate(0.000000, 4859.000000)">
                    <g id="#3" transform="translate(960.000000, 365.000000)">
                        <path d="M183.622273,18.4087899 C181.58941,19.1975766 180.469784,21.3881092 180.324517,23.4723483 C182.299362,23.4267306 184.435419,23.2447029 186.088726,22.0493435 C187.029424,21.3788085 187.693759,19.9832629 186.980706,18.9247565 C186.203878,17.926483 184.699381,18.0115178 183.622273,18.4087899 L183.622273,18.4087899 Z M120.8927,2.03471358 C123.140809,-0.15581904 126.711828,-0.480457215 129.560938,0.596650618 C131.511424,1.34602005 132.895012,3.15743906 133.383519,5.15664332 C134.11163,8.10584606 133.741374,11.279151 132.585432,14.0702421 C130.856391,14.4555562 128.580823,14.0977013 127.664484,12.4288927 C128.156092,10.4327887 128.668958,8.22099739 127.798237,6.25190963 C127.400522,5.32671298 126.25078,4.84130583 125.322483,5.26603708 C124.312252,5.69962613 123.920737,6.84981077 123.781227,7.86004225 C123.492906,10.3384532 124.054047,13.0538102 125.79859,14.9197046 C127.254811,16.5003781 129.463502,17.2466473 131.587602,17.1496544 C134.469485,17.083221 137.291136,15.8147848 139.223906,13.6698698 C140.716445,13.6574689 142.212083,13.6605691 143.705065,13.6698698 C143.710822,17.4047589 143.698864,21.1365478 143.710822,24.870994 C143.747139,26.1270293 143.802057,27.5199175 144.609003,28.5540651 C145.315855,29.4673037 146.732659,29.3672106 147.570163,28.6935753 C148.756222,27.7776794 149.357223,26.3396164 149.857689,24.9741873 C151.056148,21.3274333 151.462721,17.4804931 151.684166,13.6667696 C153.216122,13.6605691 154.74852,13.6605691 156.280476,13.6698698 C156.334951,14.9440635 156.368611,16.2213575 156.416886,17.4986515 C157.52721,15.7935261 159.117184,14.3311042 161.092473,13.7181448 C163.070418,13.0932273 165.454937,13.2088216 167.093186,14.5981667 C168.571109,15.8573022 169.141108,17.8538491 169.235443,19.7286013 C169.329336,22.1556371 169.199126,24.5857731 169.301877,27.0101515 C169.381154,27.823297 169.605256,28.8361858 170.47022,29.1457658 C171.549985,29.4885624 172.545158,28.6634588 173.073083,27.7958378 C174.684316,25.2230914 174.784409,22.0586442 176.149838,19.3796042 C177.29958,16.9406105 179.271325,14.7620359 181.880831,13.8851142 C184.247191,13.1087285 186.977606,13.1299872 189.207556,14.3160459 C191.06725,15.2961609 192.299369,17.3259245 192.283868,19.4283221 C192.40522,21.4913025 191.361772,23.5361244 189.662847,24.6920666 C187.114016,26.4941849 183.876935,26.8338813 180.84004,26.8281238 C181.398524,27.8108961 182.299362,28.5965825 183.391528,28.9212207 C186.134344,29.7587251 189.195598,29.1457658 191.546899,27.5407334 C191.540699,29.1612669 191.561958,30.7813575 191.540699,32.398348 C189.574711,33.7575766 187.026324,34.0184386 184.68698,33.9821216 C181.237312,33.9032873 177.642376,32.2039194 176.037344,29.0275142 C175.03597,31.703454 172.521242,34.0516553 169.535723,33.9878792 C167.578593,34.0427975 165.643165,32.9382305 164.757385,31.1848301 C163.50445,28.8849037 163.91368,26.1939057 163.844147,23.6880356 C163.795429,22.204355 164.023074,20.6236815 163.383098,19.2312362 C162.806456,18.0903522 161.255899,18.1417274 160.254968,18.6302348 C158.568001,19.4615388 157.773014,21.3424915 157.327024,23.0657755 C156.486862,26.5247443 156.890335,30.1108225 156.784041,33.6300243 C154.978823,33.6300243 153.173604,33.6331245 151.371486,33.6269241 C151.356428,32.07681 151.377686,30.5231528 151.359528,28.9730388 C150.5889,30.4987939 149.572468,31.952358 148.128204,32.908114 C146.214035,34.2367832 143.546953,34.3550348 141.508332,33.2509107 C139.809407,32.3009122 138.938685,30.4049013 138.56843,28.5722235 C137.973629,25.4383358 138.319525,22.2256137 138.231833,19.0580663 C135.741021,20.7569913 132.670467,21.3185755 129.706206,21.4031674 C127.780078,25.3351425 125.119197,28.899962 121.969808,31.9341995 C120.983936,32.8168788 119.943145,33.8727279 118.538741,33.9515623 C117.279606,33.9878792 116.238815,33.1508176 115.319376,32.3921475 C112.440593,29.8738765 110.401528,26.5486604 108.799596,23.1113931 C106.214892,17.5017518 104.864521,11.4124608 104,5.32361275 L104,5.0928672 C105.92657,5.09906765 107.853141,5.0840094 109.776611,5.09906765 C110.316493,9.39199784 111.120781,13.6760702 112.592061,17.7564134 C113.969448,21.6427708 116.032428,25.2837673 118.678252,28.4482144 C121.06277,26.0543954 122.98004,23.2265445 124.506238,20.2202089 C120.762491,18.2785804 118.578158,14.1433189 118.353613,10.0169153 C118.129068,7.18020651 118.781445,4.07377792 120.8927,2.03471358 Z M140.525116,3.80361518 C141.626583,3.60652925 142.849402,3.84923282 143.683806,4.62871875 C145.167044,5.98174689 145.151985,8.600111 143.680706,9.95623936 C142.193925,11.3548851 139.405934,11.13034 138.335027,9.32512149 C137.09715,7.36223419 138.016146,4.12825336 140.525116,3.80361518 Z" id="vine-logo"></path>
                    </g>
                </g>
            </g>
        </g>
    </g>
</svg>